<?xml version="1.0" encoding="UTF-8"?>
<svg width="45px" height="51px" viewBox="0 0 45 51" version="1.1" xmlns="http://www.w3.org/2000/svg" xmlns:xlink="http://www.w3.org/1999/xlink">
    <!-- Generator: Sketch 56.3 (81716) - https://sketch.com -->
    <title>oh</title>
    <desc>Created with Sketch.</desc>
    <defs>
        <polygon id="path-1" points="2.03615984e-06 0.100912392 44.9259344 0.100912392 44.9259344 44.8671545 2.03615984e-06 44.8671545"></polygon>
        <path d="M1.10670492,15.5940951 C-1.59713115,24.2260288 1.27091803,33.263611 7.69013115,38.8584726 L7.69013115,38.8584726 C9.94898361,40.8258674 12.6452951,42.3690951 15.6936393,43.3181066 L15.6936393,43.3181066 C27.4061803,46.9585072 39.8654262,40.4528473 43.5232623,28.7845764 L43.5232623,28.7845764 C46.2288689,20.1544063 43.3583115,11.1157954 36.9401311,5.52122767 L36.9401311,5.52122767 C34.6818689,3.5535389 31.984082,2.01236888 28.9360328,1.0630634 L28.9360328,1.0630634 C26.7328033,0.377870317 24.501541,0.0517348703 22.3089344,0.0517348703 L22.3089344,0.0517348703 C12.8456557,0.0511469741 4.07552459,6.12146974 1.10670492,15.5940951 L1.10670492,15.5940951 Z M6.23847541,17.1905274 C7.57814754,12.9124063 10.5117049,9.41089625 14.4953115,7.33062536 L14.4953115,7.33062536 C18.4800984,5.24947262 23.0391148,4.83941499 27.3337377,6.17540922 L27.3337377,6.17540922 C29.5950984,6.87721037 31.6355902,8.01523055 33.3998852,9.55184438 L33.3998852,9.55184438 C38.4187869,13.9271153 40.3790164,20.8497406 38.3913443,27.188879 L38.3913443,27.188879 C35.6245082,36.0204035 26.1604918,40.9627003 17.2968197,38.2037032 L17.2968197,38.2037032 C15.0347213,37.5024899 12.9936393,36.3669683 11.2297869,34.8291787 L11.2297869,34.8291787 C6.21132787,30.4540548 4.25109836,23.5293718 6.23847541,17.1905274 L6.23847541,17.1905274 Z M11.2297869,34.8291787 L7.69013115,38.8584726 L11.2297869,34.8291787 Z" id="path-3"></path>
        <linearGradient x1="50.9765916%" y1="40.6297266%" x2="55.0637255%" y2="1.42315738%" id="linearGradient-5">
            <stop stop-color="#8AC441" offset="0%"></stop>
            <stop stop-color="#BDD638" offset="100%"></stop>
        </linearGradient>
        <path d="M20.8227541,0.185334294 C17.8291475,0.38521902 14.8271311,1.19342939 11.9984754,2.66978386 L11.9984754,2.66978386 C1.1314918,8.34533429 -3.06059016,21.7223256 2.63581967,32.5488761 L2.63581967,32.5488761 C2.90257377,33.0563775 3.18688525,33.5478588 3.4862459,34.0250836 L3.4862459,34.0250836 C5.87419672,34.5292046 8.35760656,34.730853 10.897377,34.5957839 L10.897377,34.5957839 C9.50340984,33.314464 8.30832787,31.7940173 7.39770492,30.0620749 L7.39770492,30.0620749 C3.08478689,21.8690058 6.26901639,11.7078069 14.4947213,7.41498847 L14.4947213,7.41498847 C16.5918689,6.31768012 18.8414262,5.68289914 21.1802459,5.5278415 L21.1802459,5.5278415 C27.752459,5.09132853 33.9736721,8.5203804 37.1074426,14.2720634 L37.1074426,14.2720634 C37.8686066,12.0276225 38.3785082,9.66810086 38.6159016,7.23082997 L38.6159016,7.23082997 C34.3749836,2.66434582 28.4150656,0.136832853 22.2956557,0.136391931 L22.2956557,0.136391931 C21.805082,0.136391931 21.3145082,0.152706052 20.8227541,0.185334294" id="path-6"></path>
        <polygon id="path-8" points="2.03615984e-06 0.100912392 44.9259344 0.100912392 44.9259344 44.8671545 2.03615984e-06 44.8671545"></polygon>
        <path d="M1.47216393,0.0296887608 C1.10670492,0.0296887608 0.744934426,0.177691643 0.523327869,0.52337464 L0.523327869,0.52337464 C0.0706721311,1.21885591 0.321639344,2.25223055 0.734901639,2.63480403 L0.734901639,2.63480403 C5.97880328,7.51816427 8.13821311,14.3759741 6.7435082,21.0225821 L6.7435082,21.0225821 C4.29978689,20.8507695 2.27788525,21.9846744 1.51022951,23.896072 L1.51022951,23.896072 C0.84304918,25.9542968 -0.572606557,29.8940836 0.523327869,32.0884063 L0.523327869,32.0884063 C1.8565082,34.2633285 6.88972131,32.0356427 8.92047541,28.7532709 L8.92047541,28.7532709 C10.9569836,25.7760173 10.0758689,22.2462882 7.81642623,21.3228501 L7.81642623,21.3228501 C9.81501639,14.4135994 8.18527869,6.58737752 2.46585246,0.446948127 L2.46585246,0.446948127 C2.23229508,0.187538905 1.8514918,0.0296887608 1.47408197,0.0296887608 L1.47408197,0.0296887608 L1.47216393,0.0296887608 Z" id="path-10"></path>
        <path d="M0.512262295,7.68953602 L0.51152459,7.68953602 C0.51152459,7.69071182 0.510639344,7.69159366 0.51004918,7.6924755 L0.51004918,7.6924755 C0.500901639,7.70746686 0.492639344,7.72392795 0.482901639,7.73891931 L0.482901639,7.73891931 C0.485557377,7.7400951 0.487180328,7.74053602 0.488803279,7.74156484 L0.488803279,7.74156484 C-0.408836066,9.76789625 0.0293606557,11.8912305 1.51332787,12.6698991 L1.51332787,12.6698991 C-0.316918033,19.2190634 1.23565574,26.6650634 6.69644262,32.5794467 L6.69644262,32.5794467 C7.13832787,33.0778357 8.14455738,33.0831268 8.59367213,32.2574265 L8.59367213,32.2574265 C9.0442623,31.4414265 8.83667213,30.3579337 8.45114754,30.0115159 L8.45114754,30.0115159 C3.59203279,25.5580548 1.48913115,19.2368473 2.67270492,13.0064697 L2.67270492,13.0064697 C4.32162295,13.0761354 5.48040984,12.1925274 6.0814918,10.9145879 L6.0814918,10.9145879 C6.08311475,10.9150288 6.08414754,10.9159107 6.08503279,10.9163516 L6.08503279,10.9163516 C6.08842623,10.9079741 6.09019672,10.8990086 6.0937377,10.891072 L6.0937377,10.891072 C6.09432787,10.8869568 6.09698361,10.8834294 6.09860656,10.8794611 L6.09860656,10.8794611 C6.09772131,10.8794611 6.09772131,10.8790202 6.09595082,10.8790202 L6.09595082,10.8790202 C6.68581967,8.0970951 9.76972131,4.40834006 9.76588882,4.23035447 L9.76588882,4.23035447 C9.5457541,3.95257349 6.18713115,7.51948703 5.13855738,10.3322767 L5.13855738,10.3322767 C4.9442459,10.2211643 4.75008197,10.1103458 4.55562295,9.99923343 L4.55562295,9.99923343 C5.41357377,6.90675216 8.99129508,3.03119308 8.98613115,2.86672911 L8.98613115,2.86672911 C8.76777049,2.57674928 4.9172459,6.33076081 3.60059016,9.4542536 L3.60059016,9.4542536 C3.40760656,9.34328818 3.21255738,9.23202882 3.01927869,9.12135735 L3.01927869,9.12135735 C4.14059016,5.71611527 8.21095082,1.65316427 8.20534426,1.50325072 L8.20534426,1.50325072 C7.98786885,1.19739769 3.64322951,5.13777233 2.0584918,8.57343804 L2.0584918,8.57343804 C1.86285246,8.46114986 1.66765574,8.34989049 1.47216393,8.23833718 L1.47216393,8.23833718 C2.86362295,4.52195101 7.42839344,0.270285303 7.42145902,0.13345245 L7.42145902,0.13345245 C7.4134918,0.121694524 7.39918033,0.115962536 7.37911475,0.115962536 L7.37911475,0.115962536 C6.85298361,0.11537464 2.29662295,4.07897118 0.512262295,7.68953602" id="path-12"></path>
    </defs>
    <g id="Page-1" stroke="none" stroke-width="1" fill="none" fill-rule="evenodd">
        <g id="_01_Mobile-LP" transform="translate(-10.000000, -7.000000)">
            <g id="oh" transform="translate(10.000000, 7.000000)">
                <g id="Group-29">
                    <g id="Group-3" transform="translate(0.000000, 2.615844)">
                        <mask id="mask-2" fill="white">
                            <use xlink:href="#path-1"></use>
                        </mask>
                        <g id="Clip-2"></g>
                        <path d="M11.5460705,34.9447885 C13.2826279,36.4574455 15.2916934,37.5743014 17.5172016,38.2640507 C19.1243656,38.7642035 20.785382,39.0178807 22.4548082,39.0178807 C29.7600049,39.0178807 36.1293492,34.3529239 38.3043984,27.4100161 C40.2627098,21.1642063 38.3321361,14.3421112 33.3858246,10.0298922 C31.6438082,8.51267896 29.6322344,7.39317752 27.407759,6.70284035 C25.7873164,6.19857233 24.1164148,5.94298444 22.441382,5.94298444 C19.7916934,5.94298444 17.1344803,6.59951758 14.7568574,7.84130144 C10.8299066,9.89188357 7.94031639,13.3423937 6.62041475,17.5574628 C4.66195574,23.8041545 6.59267705,30.6268375 11.5391361,34.9389095 L11.5460705,34.9447885 Z M22.4660213,44.8671545 C20.2021525,44.8671545 17.948759,44.5232352 15.7681033,43.8456847 C12.8360213,42.9326818 10.1773328,41.469996 7.86167705,39.4967222 L7.8607918,39.497898 L7.49120164,39.1755839 L7.49193934,39.1744081 C0.936103279,33.3338058 -1.60455246,24.1931948 1.01975902,15.8152323 C2.4755459,11.170264 5.33061148,7.21137061 9.27600492,4.36639366 C13.0905295,1.61577406 17.7715623,0.100912392 22.4565787,0.100912392 C24.7205951,0.100912392 26.9747262,0.444978674 29.1565623,1.12341095 C32.1714148,2.06242824 34.8942836,3.5790536 37.2491852,5.6309585 C43.9429721,11.4655349 46.5554803,20.6977107 43.9054967,29.1515118 C42.4489721,33.797068 39.5936115,37.7565493 35.6477754,40.6016732 C31.8328082,43.3522928 27.1517754,44.8671545 22.4673492,44.8671545 L22.4660213,44.8671545 Z" id="Fill-1" fill="#BBBDBF" mask="url(#mask-2)"></path>
                    </g>
                    <g id="Group-6" transform="translate(0.147541, 2.909793)">
                        <mask id="mask-4" fill="white">
                            <use xlink:href="#path-3"></use>
                        </mask>
                        <g id="Clip-5"></g>
                        <path d="M1.10670492,15.5940951 C-1.59713115,24.2260288 1.27091803,33.263611 7.69013115,38.8584726 L7.69013115,38.8584726 C9.94898361,40.8258674 12.6452951,42.3690951 15.6936393,43.3181066 L15.6936393,43.3181066 C27.4061803,46.9585072 39.8654262,40.4528473 43.5232623,28.7845764 L43.5232623,28.7845764 C46.2288689,20.1544063 43.3583115,11.1157954 36.9401311,5.52122767 L36.9401311,5.52122767 C34.6818689,3.5535389 31.984082,2.01236888 28.9360328,1.0630634 L28.9360328,1.0630634 C26.7328033,0.377870317 24.501541,0.0517348703 22.3089344,0.0517348703 L22.3089344,0.0517348703 C12.8456557,0.0511469741 4.07552459,6.12146974 1.10670492,15.5940951 L1.10670492,15.5940951 Z M6.23847541,17.1905274 C7.57814754,12.9124063 10.5117049,9.41089625 14.4953115,7.33062536 L14.4953115,7.33062536 C18.4800984,5.24947262 23.0391148,4.83941499 27.3337377,6.17540922 L27.3337377,6.17540922 C29.5950984,6.87721037 31.6355902,8.01523055 33.3998852,9.55184438 L33.3998852,9.55184438 C38.4187869,13.9271153 40.3790164,20.8497406 38.3913443,27.188879 L38.3913443,27.188879 C35.6245082,36.0204035 26.1604918,40.9627003 17.2968197,38.2037032 L17.2968197,38.2037032 C15.0347213,37.5024899 12.9936393,36.3669683 11.2297869,34.8291787 L11.2297869,34.8291787 C6.21132787,30.4540548 4.25109836,23.5293718 6.23847541,17.1905274 L6.23847541,17.1905274 Z M11.2297869,34.8291787 L7.69013115,38.8584726 L11.2297869,34.8291787 Z" id="Fill-4" fill="url(#linearGradient-5)" mask="url(#mask-4)"></path>
                    </g>
                    <g id="Group-9" transform="translate(0.147541, 2.909793)">
                        <mask id="mask-7" fill="white">
                            <use xlink:href="#path-6"></use>
                        </mask>
                        <g id="Clip-8"></g>
                        <path d="M20.8227541,0.185334294 C17.8291475,0.38521902 14.8271311,1.19342939 11.9984754,2.66978386 L11.9984754,2.66978386 C1.1314918,8.34533429 -3.06059016,21.7223256 2.63581967,32.5488761 L2.63581967,32.5488761 C2.90257377,33.0563775 3.18688525,33.5478588 3.4862459,34.0250836 L3.4862459,34.0250836 C5.87419672,34.5292046 8.35760656,34.730853 10.897377,34.5957839 L10.897377,34.5957839 C9.50340984,33.314464 8.30832787,31.7940173 7.39770492,30.0620749 L7.39770492,30.0620749 C3.08478689,21.8690058 6.26901639,11.7078069 14.4947213,7.41498847 L14.4947213,7.41498847 C16.5918689,6.31768012 18.8414262,5.68289914 21.1802459,5.5278415 L21.1802459,5.5278415 C27.752459,5.09132853 33.9736721,8.5203804 37.1074426,14.2720634 L37.1074426,14.2720634 C37.8686066,12.0276225 38.3785082,9.66810086 38.6159016,7.23082997 L38.6159016,7.23082997 C34.3749836,2.66434582 28.4150656,0.136832853 22.2956557,0.136391931 L22.2956557,0.136391931 C21.805082,0.136391931 21.3145082,0.152706052 20.8227541,0.185334294" id="Fill-7" mask="url(#mask-7)"></path>
                    </g>
                    <g id="Group-17" transform="translate(0.000000, 2.615844)">
                        <path d="M17.892782,34.6438003 C11.0731426,32.0156101 7.58984754,24.5153767 9.89679836,17.6803478 C9.82081475,17.8578925 9.74291311,18.0382297 9.67076557,18.2226821 C6.95778197,25.2089473 10.4434377,33.0636821 17.4581262,35.7671231 C24.4714869,38.4696821 32.3577,34.996538 35.0697984,28.0083622 C35.1431262,27.8214112 35.2102574,27.6325496 35.2737,27.4444228 C32.3661098,34.0557571 24.7181754,37.274489 17.892782,34.6438003" id="Fill-10" fill="#91C13E"></path>
                        <path d="M17.892782,34.6438003 C11.0731426,32.0156101 7.58984754,24.5153767 9.89679836,17.6803478 C9.82081475,17.8578925 9.74291311,18.0382297 9.67076557,18.2226821 C6.95778197,25.2089473 10.4434377,33.0636821 17.4581262,35.7671231 C24.4714869,38.4696821 32.3577,34.996538 35.0697984,28.0083622 C35.1431262,27.8214112 35.2102574,27.6325496 35.2737,27.4444228 C32.3661098,34.0557571 24.7181754,37.274489 17.892782,34.6438003" id="Fill-12" fill="#FFFFFF"></path>
                        <g id="Group-16">
                            <mask id="mask-9" fill="white">
                                <use xlink:href="#path-8"></use>
                            </mask>
                            <g id="Clip-15"></g>
                            <path d="M11.5460705,34.9447885 C13.2826279,36.4574455 15.2916934,37.5743014 17.5172016,38.2640507 C19.1243656,38.7642035 20.785382,39.0178807 22.4548082,39.0178807 C29.7600049,39.0178807 36.1293492,34.3529239 38.3043984,27.4100161 C40.2627098,21.1642063 38.3321361,14.3421112 33.3858246,10.0298922 C31.6438082,8.51267896 29.6322344,7.39317752 27.407759,6.70284035 C25.7873164,6.19857233 24.1164148,5.94298444 22.441382,5.94298444 C19.7916934,5.94298444 17.1344803,6.59951758 14.7568574,7.84130144 C10.8299066,9.89188357 7.94031639,13.3423937 6.62041475,17.5574628 C4.66195574,23.8041545 6.59267705,30.6268375 11.5391361,34.9389095 L11.5460705,34.9447885 Z M22.4660213,44.8671545 C20.2021525,44.8671545 17.948759,44.5232352 15.7681033,43.8456847 C12.8360213,42.9326818 10.1773328,41.469996 7.86167705,39.4967222 L7.8607918,39.497898 L7.49120164,39.1755839 L7.49193934,39.1744081 C0.936103279,33.3338058 -1.60455246,24.1931948 1.01975902,15.8152323 C2.4755459,11.170264 5.33061148,7.21137061 9.27600492,4.36639366 C13.0905295,1.61577406 17.7715623,0.100912392 22.4565787,0.100912392 C24.7205951,0.100912392 26.9747262,0.444978674 29.1565623,1.12341095 C32.1714148,2.06242824 34.8942836,3.5790536 37.2491852,5.6309585 C43.9429721,11.4655349 46.5554803,20.6977107 43.9054967,29.1515118 C42.4489721,33.797068 39.5936115,37.7565493 35.6477754,40.6016732 C31.8328082,43.3522928 27.1517754,44.8671545 22.4673492,44.8671545 L22.4660213,44.8671545 Z" id="Fill-14" fill="#FFFFFF" mask="url(#mask-9)"></path>
                        </g>
                    </g>
                    <g id="Group-20" transform="translate(23.754098, 0.117285)">
                        <mask id="mask-11" fill="white">
                            <use xlink:href="#path-10"></use>
                        </mask>
                        <g id="Clip-19"></g>
                        <path d="M1.47216393,0.0296887608 C1.10670492,0.0296887608 0.744934426,0.177691643 0.523327869,0.52337464 L0.523327869,0.52337464 C0.0706721311,1.21885591 0.321639344,2.25223055 0.734901639,2.63480403 L0.734901639,2.63480403 C5.97880328,7.51816427 8.13821311,14.3759741 6.7435082,21.0225821 L6.7435082,21.0225821 C4.29978689,20.8507695 2.27788525,21.9846744 1.51022951,23.896072 L1.51022951,23.896072 C0.84304918,25.9542968 -0.572606557,29.8940836 0.523327869,32.0884063 L0.523327869,32.0884063 C1.8565082,34.2633285 6.88972131,32.0356427 8.92047541,28.7532709 L8.92047541,28.7532709 C10.9569836,25.7760173 10.0758689,22.2462882 7.81642623,21.3228501 L7.81642623,21.3228501 C9.81501639,14.4135994 8.18527869,6.58737752 2.46585246,0.446948127 L2.46585246,0.446948127 C2.23229508,0.187538905 1.8514918,0.0296887608 1.47408197,0.0296887608 L1.47408197,0.0296887608 L1.47216393,0.0296887608 Z" id="Fill-18" mask="url(#mask-11)"></path>
                    </g>
                    <g id="Group-23" transform="translate(12.245902, 18.048121)">
                        <mask id="mask-13" fill="white">
                            <use xlink:href="#path-12"></use>
                        </mask>
                        <g id="Clip-22"></g>
                        <path d="M0.512262295,7.68953602 L0.51152459,7.68953602 C0.51152459,7.69071182 0.510639344,7.69159366 0.51004918,7.6924755 L0.51004918,7.6924755 C0.500901639,7.70746686 0.492639344,7.72392795 0.482901639,7.73891931 L0.482901639,7.73891931 C0.485557377,7.7400951 0.487180328,7.74053602 0.488803279,7.74156484 L0.488803279,7.74156484 C-0.408836066,9.76789625 0.0293606557,11.8912305 1.51332787,12.6698991 L1.51332787,12.6698991 C-0.316918033,19.2190634 1.23565574,26.6650634 6.69644262,32.5794467 L6.69644262,32.5794467 C7.13832787,33.0778357 8.14455738,33.0831268 8.59367213,32.2574265 L8.59367213,32.2574265 C9.0442623,31.4414265 8.83667213,30.3579337 8.45114754,30.0115159 L8.45114754,30.0115159 C3.59203279,25.5580548 1.48913115,19.2368473 2.67270492,13.0064697 L2.67270492,13.0064697 C4.32162295,13.0761354 5.48040984,12.1925274 6.0814918,10.9145879 L6.0814918,10.9145879 C6.08311475,10.9150288 6.08414754,10.9159107 6.08503279,10.9163516 L6.08503279,10.9163516 C6.08842623,10.9079741 6.09019672,10.8990086 6.0937377,10.891072 L6.0937377,10.891072 C6.09432787,10.8869568 6.09698361,10.8834294 6.09860656,10.8794611 L6.09860656,10.8794611 C6.09772131,10.8794611 6.09772131,10.8790202 6.09595082,10.8790202 L6.09595082,10.8790202 C6.68581967,8.0970951 9.76972131,4.40834006 9.76588882,4.23035447 L9.76588882,4.23035447 C9.5457541,3.95257349 6.18713115,7.51948703 5.13855738,10.3322767 L5.13855738,10.3322767 C4.9442459,10.2211643 4.75008197,10.1103458 4.55562295,9.99923343 L4.55562295,9.99923343 C5.41357377,6.90675216 8.99129508,3.03119308 8.98613115,2.86672911 L8.98613115,2.86672911 C8.76777049,2.57674928 4.9172459,6.33076081 3.60059016,9.4542536 L3.60059016,9.4542536 C3.40760656,9.34328818 3.21255738,9.23202882 3.01927869,9.12135735 L3.01927869,9.12135735 C4.14059016,5.71611527 8.21095082,1.65316427 8.20534426,1.50325072 L8.20534426,1.50325072 C7.98786885,1.19739769 3.64322951,5.13777233 2.0584918,8.57343804 L2.0584918,8.57343804 C1.86285246,8.46114986 1.66765574,8.34989049 1.47216393,8.23833718 L1.47216393,8.23833718 C2.86362295,4.52195101 7.42839344,0.270285303 7.42145902,0.13345245 L7.42145902,0.13345245 C7.4134918,0.121694524 7.39918033,0.115962536 7.37911475,0.115962536 L7.37911475,0.115962536 C6.85298361,0.11537464 2.29662295,4.07897118 0.512262295,7.68953602" id="Fill-21" mask="url(#mask-13)"></path>
                    </g>
                    <g id="Group-28" transform="translate(12.245902, 0.117285)" fill="#FFFFFF">
                        <path d="M13.0183672,23.8961161 C12.3513344,25.9543409 10.9356787,29.8939807 12.0316131,32.0884504 C13.3647934,34.2633726 18.3980066,32.0355398 20.4287607,28.753315 C22.4651213,25.7760614 21.5841541,22.2463323 19.3245639,21.3227473 C21.3231541,14.4136435 19.6934164,6.58742161 13.9741377,0.446992219 C13.5139574,-0.0640365994 12.4823508,-0.179852161 12.0316131,0.523271758 C11.5788098,1.2189 11.829777,2.25227464 12.2430393,2.63470115 C17.4870885,7.51806138 19.6464984,14.3760182 18.2516459,21.0226262 C15.8079246,20.8506666 13.786023,21.9847184 13.0183672,23.8961161" id="Fill-24"></path>
                        <path d="M6.08143279,28.8454383 C6.08305574,28.8458793 6.08408852,28.8467611 6.08497377,28.847202 C6.08836721,28.8386775 6.09028525,28.8300061 6.09367869,28.8219225 C6.09441639,28.8179542 6.09707213,28.8142798 6.09854754,28.8103115 C6.0976623,28.8103115 6.0976623,28.8098706 6.0958918,28.8098706 C6.6859082,26.0279455 9.76980984,22.3391905 9.76597735,22.1612049 C9.54569508,21.8832769 6.18721967,25.4503375 5.1386459,28.2631271 C4.94418689,28.1520147 4.75002295,28.0410493 4.55571148,27.9299369 C5.41351475,24.8374556 8.99138361,20.9620435 8.98607213,20.7974326 C8.76785902,20.5075997 4.91718689,24.2616112 3.60067869,27.3849571 C3.40754754,27.2741386 3.2126459,27.1630262 3.01936721,27.0522078 C4.14053115,23.6469657 8.21103934,19.5840147 8.20543279,19.4341012 C7.98795738,19.1282481 3.64317049,23.0684758 2.05858033,26.5042885 C1.86294098,26.3921473 1.66759672,26.2807409 1.47225246,26.1691876 C2.86356393,22.4528014 7.42848197,18.2011357 7.42154754,18.0643029 C7.20407213,17.7438994 2.36458033,21.8722539 0.512203279,25.6203865 L0.511465574,25.6203865 C0.511465574,25.6215622 0.510580328,25.6224441 0.509990164,25.6234729 C0.500842623,25.6383173 0.492580328,25.6547784 0.482842623,25.6697697 C0.485498361,25.6707986 0.487121311,25.6713865 0.488744262,25.6725622 C-0.408895082,27.6987467 0.0293016393,29.822228 1.51326885,30.6007496 C-0.316829508,37.1499138 1.23574426,44.5960608 6.69638361,50.5102971 C7.13826885,51.0086862 8.14449836,51.0139772 8.59376066,50.18813 C9.04420328,49.3724239 8.83661311,48.2889311 8.45123607,47.9423663 C3.59197377,43.4889052 1.48921967,37.1676977 2.6726459,30.9373202 C4.32171148,31.0069859 5.48035082,30.1233778 6.08143279,28.8454383" id="Fill-26"></path>
                    </g>
                </g>
            </g>
        </g>
    </g>
</svg>